<svg xmlns="http://www.w3.org/2000/svg" width="178" height="45" viewBox="0 0 178 45" fill="none"><path d="M120.154 5.50171C112.581 5.50171 106.441 11.612 106.441 19.1494C106.441 26.6867 112.581 32.797 120.154 32.797C127.727 32.797 133.866 26.6867 133.866 19.1494C133.866 11.612 127.727 5.50171 120.154 5.50171ZM120.154 25.9067C116.367 25.9067 113.286 22.8412 113.286 19.0709C113.286 15.3006 116.367 12.235 120.154 12.235C123.94 12.235 127.022 15.3006 127.022 19.0709C127.022 22.8412 123.94 25.9067 120.154 25.9067Z" fill="#202E2E"></path><path d="M91.9273 5.50171C84.3542 5.50171 78.2148 11.612 78.2148 19.1494C78.2148 26.6867 84.3542 32.797 91.9273 32.797C99.5005 32.797 105.64 26.6867 105.64 19.1494C105.64 11.612 99.5005 5.50171 91.9273 5.50171ZM91.9273 25.9067C88.1407 25.9067 85.059 22.8412 85.059 19.0709C85.059 15.3006 88.1407 12.235 91.9273 12.235C95.7139 12.235 98.7956 15.3006 98.7956 19.0709C98.7956 22.8412 95.7139 25.9067 91.9273 25.9067Z" fill="#202E2E"></path><path d="M22.5409 6.21124V8.70982C20.156 6.70935 17.0758 5.50171 13.7125 5.50171C6.13932 5.50171 0 11.612 0 19.1494C0 26.6867 6.13932 32.797 13.7125 32.797C17.0758 32.797 20.1543 31.5894 22.5409 29.5889V32.1356H29.0519V6.21124H22.5409ZM14.2822 25.9067C10.4956 25.9067 7.41385 22.8412 7.41385 19.0709C7.41385 15.3006 10.4956 12.235 14.2822 12.235C18.0687 12.235 21.1505 15.3006 21.1505 19.0709C21.1505 22.8412 18.0687 25.9067 14.2822 25.9067Z" fill="#202E2E"></path><path d="M46.6793 5.50171C43.3159 5.50171 40.2374 6.70935 37.8509 8.70982V6.21124H31.3398V44.6701H37.8509V29.5889C40.2358 31.5894 43.3159 32.797 46.6793 32.797C54.2525 32.797 60.3918 26.6867 60.3918 19.1494C60.3918 11.612 54.2525 5.50171 46.6793 5.50171ZM46.1112 25.9067C42.3246 25.9067 39.2429 22.8412 39.2429 19.0709C39.2429 15.3006 42.3246 12.235 46.1112 12.235C49.8978 12.235 52.9795 15.3006 52.9795 19.0709C52.9795 22.8412 49.8978 25.9067 46.1112 25.9067Z" fill="#202E2E"></path><path d="M151.021 5.50171C147.658 5.50171 144.579 6.70935 142.193 8.70982V6.21124H135.682V44.6701H142.193V29.5889C144.578 31.5894 147.658 32.797 151.021 32.797C158.594 32.797 164.734 26.6867 164.734 19.1494C164.734 11.612 158.594 5.50171 151.021 5.50171ZM150.453 25.9067C146.666 25.9067 143.585 22.8412 143.585 19.0709C143.585 15.3006 146.666 12.235 150.453 12.235C154.24 12.235 157.321 15.3006 157.321 19.0709C157.321 22.8412 154.24 25.9067 150.453 25.9067Z" fill="#202E2E"></path><path d="M61.9512 6.21118V32.1355H68.4638V11.0722V6.21118H61.9512Z" fill="#202E2E"></path><path d="M73.3489 15.9332C76.0464 15.9332 78.233 13.7569 78.233 11.0722C78.233 8.38753 76.0464 6.21118 73.3489 6.21118C70.6515 6.21118 68.4648 8.38753 68.4648 11.0722C68.4648 13.7569 70.6515 15.9332 73.3489 15.9332Z" fill="#202E2E"></path><path d="M173.117 25.9243C174.914 25.9243 176.372 24.4732 176.372 22.6842L178.001 0H168.232L169.861 22.6842C169.861 24.4732 171.319 25.9243 173.117 25.9243Z" fill="#202E2E"></path><path d="M173.117 37.2657C175.814 37.2657 178.001 35.0894 178.001 32.4047C178.001 29.7201 175.814 27.5437 173.117 27.5437C170.419 27.5437 168.232 29.7201 168.232 32.4047C168.232 35.0894 170.419 37.2657 173.117 37.2657Z" fill="#202E2E"></path><path d="M120.154 34.3088C113.719 34.3088 108.323 38.7214 106.844 44.6715H114.09C115.247 42.5141 117.529 41.0422 120.154 41.0422C122.779 41.0422 125.061 42.5141 126.218 44.6715H133.464C131.987 38.7214 126.589 34.3088 120.154 34.3088Z" fill="#202E2E"></path><path d="M91.9293 34.3088C85.4939 34.3088 80.098 38.7214 78.6191 44.6715H85.8656C87.0227 42.5141 89.3046 41.0422 91.9293 41.0422C94.554 41.0422 96.8359 42.5141 97.993 44.6715H105.239C103.762 38.7214 98.3647 34.3088 91.9293 34.3088Z" fill="#202E2E"></path></svg>