<svg width="348" height="98" viewBox="0 0 348 98" fill="none" xmlns="http://www.w3.org/2000/svg">
<g clip-path="url(#clip0_115_4)">
<path d="M95.4395 68.4164C91.4433 68.4164 88.271 67.4982 86.0043 65.6934C83.6694 63.8256 81.7942 60.8236 80.4242 56.7593L61.6722 0.544601H73.151L90.6059 53.8158C91.68 57.5425 94.3426 57.9476 95.4395 57.9476C96.5364 57.9476 99.2991 57.547 100.378 53.8158L117.833 0.544601H129.307L110.455 56.7639C108.111 64.6267 103.204 68.4164 95.4395 68.4164Z" fill="#323E48"/>
<path d="M176.173 67.8763L158.705 14.461C157.963 11.9496 156.161 10.4733 153.78 10.4733C152.683 10.4733 150.016 10.8694 148.937 14.5285L131.487 67.8763H120.008L138.765 11.549C140.13 7.5028 142.001 4.51428 144.327 2.68247C146.593 0.904657 149.775 0 153.776 0C161.609 0 166.511 3.75365 168.768 11.468L187.648 67.8718H176.173V67.8763Z" fill="#323E48"/>
<path d="M201.834 67.8763V11.801H180.042V1.43124H234.323V11.801H212.635V67.8763H201.834Z" fill="#323E48"/>
<path d="M261.8 67.8763C257.968 67.8763 254.704 67.4937 252.101 66.7376C249.657 66.031 247.649 64.9148 246.138 63.416C244.627 61.9217 243.498 59.9234 242.779 57.475C242.015 54.8645 241.628 51.6195 241.628 47.8253V21.3742C241.628 17.589 242.015 14.362 242.779 11.783C243.494 9.36612 244.623 7.38128 246.138 5.88702C247.649 4.39276 249.657 3.27656 252.101 2.56994C254.704 1.81831 257.968 1.43124 261.8 1.43124H294.98V11.801H262.933C259.096 11.801 256.443 12.6067 254.818 14.2585C253.207 15.8968 252.424 18.5252 252.424 22.2924V29.003H294.98V39.4763H252.424V47.0107C252.424 50.7913 253.216 53.4153 254.841 55.0175C256.461 56.6198 259.11 57.403 262.933 57.403H294.98V67.8763H261.8Z" fill="#323E48"/>
<path d="M325.871 67.8763C322.034 67.8763 318.757 67.4937 316.112 66.7376C313.636 66.031 311.616 64.9148 310.105 63.4205C308.593 61.9262 307.465 59.9279 306.746 57.4795C305.981 54.869 305.594 51.624 305.594 47.8298V1.43124H316.395V47.0107C316.395 50.8048 317.205 53.4288 318.88 55.04C320.532 56.6288 323.19 57.403 327.004 57.403H347.995V67.8763H325.866H325.871Z" fill="#323E48"/>
<path d="M56.165 67.8763L38.6965 14.461C37.9546 11.9496 36.1522 10.4733 33.7718 10.4733C32.6749 10.4733 30.0032 10.8694 28.9291 14.524L11.4788 67.8763H0L18.7566 11.549C20.122 7.4983 21.9926 4.51428 24.323 2.68697C26.5896 0.904657 29.7665 0 33.7718 0C41.6003 0 46.5023 3.75365 48.7598 11.4725L67.6438 67.8763H56.1696H56.165Z" fill="#323E48"/>
<path d="M24.323 2.68697C21.9972 4.51878 20.122 7.5028 18.7611 11.549L0 67.8763H11.4788L28.9291 14.524C30.0032 10.8649 32.6749 10.4733 33.7673 10.4733C36.1522 10.4733 37.9546 11.9496 38.692 14.4565L56.1604 67.8718H67.6392L48.7598 11.4725C46.5023 3.75365 41.6003 0 33.7673 0C29.7665 0 26.5896 0.904657 24.323 2.68697Z" fill="#323E48"/>
<path d="M222.079 81.1401H228.124V97.4734H231.328V81.1401H237.372V78.1471H222.079V81.1401Z" fill="#323E48"/>
<path d="M243.385 89.0029H253.029V86.0099H243.385V81.1401H253.639V78.1471H240.18V97.4734H254.09V94.4804H243.385V89.0029Z" fill="#323E48"/>
<path d="M260.184 78.1471H256.98V97.4734H269.373V94.4804H260.184V78.1471Z" fill="#323E48"/>
<path d="M275.058 89.0029H284.703V86.0099H275.058V81.1401H285.313V78.1471H271.859V97.4734H285.768V94.4804H275.058V89.0029Z" fill="#323E48"/>
<path d="M293.228 82.6073C293.719 81.9772 294.311 81.4686 294.989 81.1041C295.649 80.7485 296.395 80.5685 297.197 80.5685C298.526 80.5685 299.6 80.861 300.401 81.4371C301.215 82.0222 301.844 82.9449 302.285 84.1736L302.431 84.5877H305.767L305.544 83.8C305.294 82.9224 304.929 82.0987 304.474 81.3561C304.01 80.6045 303.423 79.9429 302.74 79.3893C302.044 78.8312 301.229 78.3991 300.31 78.0976C299.395 77.796 298.348 77.643 297.197 77.643C295.817 77.643 294.552 77.9265 293.455 78.4936C292.372 79.0517 291.444 79.8079 290.697 80.735C289.951 81.6577 289.377 82.7244 288.99 83.9081C288.608 85.0783 288.412 86.3115 288.412 87.5627C288.412 89.1605 288.617 90.6142 289.018 91.8744C289.427 93.1572 290.019 94.2644 290.779 95.169C291.544 96.0827 292.486 96.7938 293.583 97.2799C294.671 97.7615 295.895 98.0045 297.224 98.0045C298.375 98.0045 299.436 97.811 300.373 97.4329C301.302 97.0593 302.135 96.5328 302.836 95.8756C303.528 95.2275 304.106 94.4534 304.547 93.5757C304.989 92.7116 305.307 91.7799 305.503 90.7898L305.649 90.0561H302.394L302.29 90.5512C302.176 91.1228 301.976 91.6854 301.693 92.2345C301.42 92.7746 301.065 93.2562 300.637 93.6793C300.214 94.0978 299.709 94.4354 299.131 94.6874C297.975 95.205 296.468 95.1825 295.203 94.6334C294.548 94.3454 293.951 93.8953 293.419 93.2967C292.886 92.6891 292.445 91.9059 292.113 90.9698C291.776 90.0246 291.603 88.8814 291.603 87.5762C291.603 86.6265 291.748 85.7129 292.031 84.8577C292.313 84.0116 292.713 83.251 293.219 82.6118" fill="#323E48"/>
<path d="M323.982 80.6135C323.226 79.7178 322.289 79.0022 321.192 78.4981C320.1 77.994 318.834 77.7375 317.437 77.7375C316.04 77.7375 314.774 77.994 313.677 78.4981C312.585 79.0022 311.643 79.7133 310.887 80.618C310.136 81.5136 309.563 82.5938 309.181 83.8315C308.803 85.0468 308.612 86.3925 308.612 87.8282C308.612 89.264 308.803 90.6322 309.181 91.8474C309.568 93.0852 310.136 94.1698 310.887 95.0655C311.643 95.9747 312.581 96.6903 313.677 97.1989C314.774 97.703 316.035 97.955 317.437 97.955C318.839 97.955 320.095 97.703 321.192 97.1989C322.289 96.6948 323.226 95.9792 323.982 95.0655C324.733 94.1653 325.306 93.0852 325.693 91.8519C326.076 90.6322 326.271 89.282 326.271 87.8282C326.271 86.3745 326.076 85.0468 325.693 83.827C325.302 82.5893 324.728 81.5091 323.982 80.6135ZM323.067 87.8282C323.067 88.9804 322.917 90.0201 322.612 90.9203C322.316 91.8114 321.907 92.5676 321.397 93.1752C320.892 93.7693 320.295 94.2328 319.622 94.5434C318.27 95.1645 316.586 95.1645 315.23 94.5434C314.556 94.2328 313.96 93.7738 313.464 93.1752C312.958 92.5721 312.553 91.8114 312.262 90.9248C311.966 90.0201 311.816 88.9804 311.816 87.8282C311.816 86.676 311.966 85.6454 312.262 84.7452C312.553 83.8585 312.958 83.1069 313.464 82.4993C313.96 81.9052 314.556 81.4416 315.23 81.1356C315.912 80.825 316.654 80.6675 317.437 80.6675C318.22 80.6675 318.939 80.825 319.622 81.1356C320.295 81.4461 320.896 81.9052 321.397 82.4993C321.907 83.1069 322.316 83.8631 322.617 84.7497C322.917 85.6454 323.067 86.6805 323.067 87.8282Z" fill="#323E48"/>
<path d="M343.913 78.1471L338.433 92.4325L333.053 78.1471H329.48V97.4734H332.68V85.4473L337.145 97.2754L337.218 97.4734H339.862L344.304 85.5013V97.4734H347.499V78.1471H343.913Z" fill="#323E48"/>
</g>
<defs>
<clipPath id="clip0_115_4">
<rect width="348" height="98" fill="white"/>
</clipPath>
</defs>
</svg>
