<svg width="79" height="33" viewBox="0 0 79 33" fill="none" xmlns="http://www.w3.org/2000/svg">
<g id="Logo Lowi">
<path id="Vector" d="M6.60556 26.0962V11.2657H-1.90735e-05V31.9804H13.1995V26.0962H6.60556Z" fill="#7B2D8E"/>
<path id="Vector_2" d="M69.2778 11.2657H62.6755L58.354 20.5718L52.3848 10.7993L46.4156 20.5718L42.0941 11.2657H35.4919L45.7593 32.9867L52.3848 22.0779L59.0121 32.9867L69.2778 11.2657Z" fill="#7B2D8E"/>
<path id="Vector_3" d="M71.0421 11.2657H77.6477V31.9804H71.0421V11.2657Z" fill="#7B2D8E"/>
<path id="Vector_4" d="M25.0346 16.162C28.05 16.162 30.504 18.616 30.504 21.6314C30.504 24.6468 28.05 27.1008 25.0346 27.1008C22.0192 27.1008 19.5652 24.6468 19.5652 21.6314C19.5652 18.616 22.0192 16.162 25.0346 16.162ZM25.0346 10.2778C18.7638 10.2778 13.681 15.3607 13.681 21.6314C13.681 27.9021 18.7638 32.985 25.0346 32.985C31.3053 32.985 36.3882 27.9021 36.3882 21.6314C36.3882 15.3607 31.3053 10.2778 25.0346 10.2778Z" fill="#7B2D8E"/>
<path id="Vector_5" d="M74.344 9.42315C76.6737 9.42315 78.5623 7.53458 78.5623 5.20491C78.5623 2.87524 76.6737 0.986664 74.344 0.986664C72.0144 0.986664 70.1258 2.87524 70.1258 5.20491C70.1258 7.53458 72.0144 9.42315 74.344 9.42315Z" fill="#E60000"/>
</g>
</svg>
