<svg version="1.1" id="svg2" xmlns:x="ns_extend;" xmlns:i="ns_ai;" xmlns:graph="ns_graphs;" xmlns:cc="http://creativecommons.org/ns#" xmlns:dc="http://purl.org/dc/elements/1.1/" xmlns:rdf="http://www.w3.org/1999/02/22-rdf-syntax-ns#" xmlns:svg="http://www.w3.org/2000/svg" xmlns="http://www.w3.org/2000/svg" xmlns:xlink="http://www.w3.org/1999/xlink" x="0px" y="0px" viewBox="0 0 80 80" style="enable-background:new 0 0 80 80;" xml:space="preserve">
 <style type="text/css">
  .st0{fill:#F36617;}
	.st1{fill:#FFFFFF;}
 </style>
 <metadata id="metadata8">
  <rdf:RDF>
   <cc:Work rdf:about="">
    <dc:format>
     image/svg+xml
    </dc:format>
    <dc:type rdf:resource="http://purl.org/dc/dcmitype/StillImage">
    </dc:type>
   </cc:Work>
  </rdf:RDF>
  <sfw xmlns="ns_sfw;">
   <slices>
   </slices>
   <sliceSourceBounds bottomLeftOrigin="true" height="80" width="80" x="-80.4" y="15.5">
   </sliceSourceBounds>
  </sfw>
 </metadata>
 <g id="g10" transform="matrix(1.3333333,0,0,-1.3333333,0,40)">
  <g id="g12" transform="scale(0.1)">
   <path id="path14" class="st0" d="M600-300H0v600h600V-300">
   </path>
   <path id="path16" class="st1" d="M203.7-224.4c0-5.5,3.6-10.8,9.9-10.8c6.9,0,13.6,2.9,20.4,8.8v19.8
			C213.5-209.2,203.7-214.5,203.7-224.4 M234.5-241.9c-8.5-5.6-17.7-8.3-27.6-8.3c-15.6,0-24.8,10.4-24.8,24.3
			c0,18.7,17.2,28.6,52.6,32.6v4.6c0,6.1-4.6,9.6-13.1,9.6c-8.5,0-15.4-3.4-20.4-9.6l-14.8,8.5c7.8,10.9,19.6,16.3,35.6,16.3
			c21.8,0,33.9-9.5,33.9-24.8c0,0,0-60.4,0-60.5h-19.5L234.5-241.9">
   </path>
   <path id="path18" class="st1" d="M273.4-167.9l18.1,2.5l2.1-9.9c10.2,7.5,18.4,11.5,28.6,11.5c17.2,0,26.1-9.1,26.1-27.2v-58.2
			h-22v54.3c0,10.2-2.7,14.9-10.6,14.9c-6.6,0-13.1-3-20.6-9.3v-59.9h-21.7V-167.9">
   </path>
   <path id="path20" class="st1" d="M510.2-196.4c0,11.2-6.3,17.7-16.8,17.7c-9.9,0-16.1-6.3-17-17.7H510.2z M493.8-250.7
			c-24.6,0-39.3,15.8-39.3,43.3c0,27.7,14.8,43.6,38.9,43.6c24.1,0,38.5-15.4,38.5-42.5c0-1.4-0.2-2.9-0.2-4.3h-55.7
			c0.2-15.8,6.8-23.8,19.7-23.8c8.3,0,13.8,3.4,18.9,10.7l16.1-8.9C523.7-244.5,510.9-250.7,493.8-250.7">
   </path>
   <path id="path22" class="st1" d="M73-182.1c-16.4,0-19.5-14.8-19.5-25.5c0-10.7,3-25.5,19.5-25.5c16.4,0,19.4,14.8,19.4,25.5
			C92.4-196.9,89.4-182.1,73-182.1 M73-251.6c-21.8,0-41.4,13.9-41.4,44.1c0,30.3,19.6,44.1,41.4,44.1c21.7,0,41.3-13.8,41.3-44.1
			C114.3-237.8,94.7-251.6,73-251.6">
   </path>
   <path id="path24" class="st1" d="M129.4-165.7h20.9v-9.8c4,5.3,13.9,11.6,23,11.6c0.9,0,1.9,0,2.9-0.2v-20.6H175
			c-9.5,0-20-1.4-23.3-8.9v-55.5h-22.3V-165.7">
   </path>
   <path id="path26" class="st1" d="M441.2-165.4v-79.1c0-13.9-1.1-36.9-40.9-37.2c-16.4-0.1-31.6,6.4-34.7,20.8l21.8,3.5
			c0.8-4.2,3.4-8.2,15.7-8.2c11.4,0,16.9,5.4,16.9,18.5v9.7l-0.3,0.3c-3.5-6.2-8.8-12.1-21.6-12.1c-19.4,0-34.7,13.5-34.7,41.8
			c0,27.9,15.8,43.5,33.6,43.6c16.6,0,22.8-7.6,24.2-11.6l-0.2,0l1.8,10H441.2z M402-231.3c16.7,0.2,18.1,17.1,18.1,28.2
			c0,13.1-6.4,23.6-18.2,23.6c-7.9,0-16.8-5.7-16.8-24.5C385.2-214.3,385.9-231.4,402-231.3">
   </path>
   <path id="path28" class="st1" d="M576.4-161.6h-4.6v23h-0.2l-9-23h-2.9l-9,23h-0.1v-23h-4.6v27.6h7l8.2-20.9l8.1,20.9h7V-161.6z
			 M540.5-137.7h-8.6v-23.9h-4.5v23.9h-8.6v3.7h21.8V-137.7">
   </path>
  </g>
 </g>
</svg>